<svg xmlns="http://www.w3.org/2000/svg" viewBox="0 0 420 420" role="img" aria-labelledby="title desc">
  <title id="title">Mein Begleiter</title>
  <desc id="desc">Historisches Leuchtturmzeichen der persönlichen Projektfassung</desc>
  <rect width="420" height="420" rx="54" fill="#fffdf7"/>
  <circle cx="210" cy="177" r="126" fill="#f7f0df" stroke="#1f6b63" stroke-width="5"/>
  <g fill="none" stroke="#b58a37" stroke-width="3" opacity=".75">
    <path d="M210 35v284M68 177h284"/>
    <path d="M110 77l200 200M310 77L110 277" opacity=".45"/>
  </g>
  <g fill="#b58a37">
    <path d="M210 42l13 35-13-8-13 8z"/>
    <path d="M210 312l13-35-13 8-13-8z"/>
  </g>
  <g stroke="#174d48" stroke-linejoin="round">
    <path d="M164 286h92l-15-150h-62z" fill="#fff" stroke-width="7"/>
    <path d="M177 136h66l-10-27h-46z" fill="#1f6b63" stroke-width="7"/>
    <path d="M189 109V83h42v26" fill="#fff" stroke-width="7"/>
    <path d="M180 164h60M176 205h68M171 247h78" stroke-width="12"/>
    <path d="M197 286v-47h26v47" fill="#f7f0df" stroke-width="6"/>
    <path d="M186 83l24-24 24 24" fill="#b58a37" stroke-width="6"/>
  </g>
  <path d="M88 316c38-18 64 18 102 0s64 18 102 0 58 10 73 4" fill="none" stroke="#2a8077" stroke-width="8" stroke-linecap="round"/>
  <text x="210" y="365" text-anchor="middle" fill="#174d48" font-family="Georgia,serif" font-size="30" font-weight="700" letter-spacing="4">MEIN BEGLEITER</text>
  <text x="210" y="392" text-anchor="middle" fill="#80652d" font-family="system-ui,sans-serif" font-size="15" letter-spacing="2">PERSÖNLICHE APP</text>
</svg>
